<?xml version="1.0" standalone="no"?>
<!DOCTYPE svg PUBLIC "-//W3C//DTD SVG 20010904//EN"
 "http://www.w3.org/TR/2001/REC-SVG-20010904/DTD/svg10.dtd">
<svg version="1.0" xmlns="http://www.w3.org/2000/svg"
 width="400.000000pt" height="400.000000pt" viewBox="0 0 400.000000 400.000000"
 preserveAspectRatio="xMidYMid meet">
<metadata>
Created by potrace 1.14, written by Peter Selinger 2001-2017
</metadata>
<g transform="translate(0.000000,400.000000) scale(0.100000,-0.100000)"
fill="#000000" stroke="none">
<path d="M2000 3263 c0 -229 2 -414 4 -412 2 2 97 190 210 417 l206 412 -210
0 -210 0 0 -417z"/>
<path d="M655 3526 c-92 -34 -153 -96 -180 -182 -74 -235 172 -442 392 -331
98 51 153 145 149 256 -6 152 -116 262 -266 266 -36 1 -78 -3 -95 -9z"/>
<path d="M3175 3526 c-93 -35 -153 -96 -180 -182 -56 -178 69 -353 256 -360
55 -2 76 2 125 25 104 50 157 131 160 243 4 157 -109 278 -266 284 -36 1 -78
-3 -95 -10z"/>
<path d="M1160 2630 l0 -630 -210 -420 -210 -420 630 0 630 0 420 -210 420
-210 0 630 0 630 210 420 210 420 -630 0 -630 0 -420 210 -420 210 0 -630z
m730 -300 l0 -220 -220 0 -220 0 0 220 0 220 220 0 220 0 0 -220z m660 0 l0
-220 -220 0 -220 0 0 220 0 220 220 0 220 0 0 -220z m-660 -660 l0 -220 -220
0 -220 0 0 220 0 220 220 0 220 0 0 -220z m660 0 l0 -220 -220 0 -220 0 0 220
0 220 220 0 220 0 0 -220z"/>
<path d="M320 2210 l0 -210 417 0 c229 0 414 2 412 4 -2 2 -190 97 -416 210
l-413 206 0 -210z"/>
<path d="M2851 1996 c2 -2 190 -97 417 -210 l412 -206 0 210 0 210 -417 0
c-229 0 -414 -2 -412 -4z"/>
<path d="M1787 735 l-207 -415 210 0 210 0 0 415 c0 228 -1 415 -3 415 -1 0
-95 -187 -210 -415z"/>
<path d="M655 1006 c-91 -34 -152 -95 -178 -177 -35 -107 -11 -206 68 -284 62
-62 120 -84 207 -81 103 5 192 62 238 153 68 136 3 317 -138 379 -45 20 -156
26 -197 10z"/>
<path d="M3167 1003 c-61 -21 -125 -77 -157 -139 -35 -68 -35 -179 -2 -244 52
-100 133 -152 243 -156 153 -6 279 109 285 260 3 76 -17 137 -63 194 -70 85
-197 121 -306 85z"/>
</g>
</svg>
