<svg width="512" height="512" viewBox="0 0 512 512" fill="none" xmlns="http://www.w3.org/2000/svg">
<rect x="0" y="0" width="512" height="512" rx="72" fill="#270001"/>
<path d="M154.815 432.992C154.815 443.232 137.791 448.352 103.743 448.352C69.439 448.352 52.287 385.76 52.287 260.576C52.287 135.392 69.439 72.8 103.743 72.8C137.791 72.8 154.815 77.92 154.815 88.16C154.815 98.4 142.911 103.52 119.103 103.52C95.039 103.52 83.007 155.872 83.007 260.576C83.007 365.28 95.039 417.632 119.103 417.632C142.911 417.632 154.815 422.752 154.815 432.992ZM358.26 88.16C358.26 77.92 375.412 72.8 409.716 72.8C443.764 72.8 460.788 135.392 460.788 260.576C460.788 385.76 443.764 448.352 409.716 448.352C375.412 448.352 358.26 443.232 358.26 432.992C358.26 422.752 370.292 417.632 394.356 417.632C418.164 417.632 430.068 365.28 430.068 260.576C430.068 155.872 418.164 103.52 394.356 103.52C370.292 103.52 358.26 98.4 358.26 88.16Z" fill="#FFC4D8"/>
<path d="M197.748 380V124.64H218.1V280.16L250.74 276.32C266.612 256.864 282.1 234.592 297.204 209.504L304.5 197.6H327.54C307.572 232.672 288.116 261.6 269.172 284.384C287.092 307.168 304.756 334.048 322.164 365.024L330.612 380H306.804C289.396 347.232 271.476 318.944 253.044 295.136L218.1 298.592V380H197.748Z" fill="#E78195"/>
</svg>
